<svg xmlns="http://www.w3.org/2000/svg" viewBox="0 0 934 569" class="landing-intro-logo-svg" role="presentation" aria-hidden="true">
  <defs>
    <mask id="landing-intro-logo-mask" maskUnits="userSpaceOnUse" x="0" y="0" width="934" height="569">
      <rect width="934" height="569" fill="black" />
      <path class="landing-intro-logo__mask-trace" style="--draw-delay:0.0000s;--draw-duration:2.2698s" d="M 25 396 L 26 396 L 26 398 L 34 398 L 34 399 L 78 399 L 78 400 L 122 400 L 122 401 L 170 401 L 170 402 L 171 402 L 171 401 L 174 401 L 174 399 L 175 399 L 175 347 L 176 347 L 176 338 L 177 338 L 177 335 L 184 335 L 184 336 L 185 336 L 185 337 L 186 337 L 186 338 L 187 338 L 187 339 L 188 339 L 188 340 L 189 340 L 189 341 L 190 341 L 190 342 L 191 342 L 191 344 L 192 344 L 192 345 L 193 345 L 193 347 L 194 347 L 194 349 L 195 349 L 195 350 L 196 350 L 196 351 L 197 351 L 197 352 L 219 352 L 219 373 L 220 373 L 220 389 L 221 389 L 221 397 L 222 397 L 222 401 L 223 401 L 223 402 L 225 402 L 225 403 L 228 403 L 228 402 L 248 402 L 248 401 L 251 401 L 251 399 L 252 399 L 252 350 L 251 350 L 251 305 L 250 305 L 250 301 L 249 301 L 249 297 L 248 297 L 248 293 L 247 293 L 247 289 L 246 289 L 246 281 L 248 281 L 248 280 L 250 280 L 250 279 L 252 279 L 252 278 L 254 278 L 254 277 L 256 277 L 256 276 L 257 276 L 257 275 L 258 275 L 258 264 L 257 264 L 257 262 L 254 262 L 254 261 L 255 261 L 255 260 L 256 260 L 256 258 L 257 258 L 257 257 L 258 257 L 258 256 L 259 256 L 259 255 L 260 255 L 260 254 L 261 254 L 261 253 L 269 253 L 269 251 L 270 251 L 270 236 L 269 236 L 269 233 L 270 233 L 270 231 L 271 231 L 271 230 L 272 230 L 272 228 L 273 228 L 273 227 L 274 227 L 274 225 L 275 225 L 275 224 L 276 224 L 276 222 L 277 222 L 277 220 L 278 220 L 278 219 L 279 219 L 279 217 L 280 217 L 280 214 L 279 214 L 279 204 L 278 204 L 278 196 L 279 196 L 279 194 L 280 194 L 280 191 L 281 191 L 281 189 L 282 189 L 282 187 L 283 187 L 283 185 L 284 185 L 284 183 L 285 183 L 285 180 L 286 180 L 286 178 L 287 178 L 287 177 L 293 177 L 293 176 L 295 176 L 295 175 L 296 175 L 296 157 L 295 157 L 295 155 L 294 155 L 294 153 L 296 153 L 296 152 L 297 152 L 297 151 L 299 151 L 299 150 L 300 150 L 300 149 L 302 149 L 302 148 L 303 148 L 303 147 L 304 147 L 304 148 L 305 148 L 305 149 L 306 149 L 306 150 L 308 150 L 308 151 L 309 151 L 309 152 L 310 152 L 310 153 L 311 153 L 311 154 L 310 154 L 310 156 L 309 156 L 309 159 L 308 159 L 308 165 L 309 165 L 309 177 L 310 177 L 310 179 L 311 179 L 311 180 L 314 180 L 314 181 L 316 181 L 316 182 L 318 182 L 318 183 L 320 183 L 320 184 L 321 184 L 321 185 L 320 185 L 320 186 L 319 186 L 319 188 L 318 188 L 318 190 L 317 190 L 317 223 L 318 223 L 318 224 L 319 224 L 319 225 L 322 225 L 322 226 L 326 226 L 326 227 L 331 227 L 331 226 L 332 226 L 332 225 L 333 225 L 333 224 L 334 224 L 334 223 L 335 223 L 335 222 L 336 222 L 336 221 L 337 221 L 337 220 L 338 220 L 338 219 L 339 219 L 339 209 L 340 209 L 340 184 L 339 184 L 339 181 L 338 181 L 338 179 L 337 179 L 337 176 L 336 176 L 336 173 L 335 173 L 335 158 L 334 158 L 334 143 L 335 143 L 335 142 L 336 142 L 336 141 L 337 141 L 337 140 L 338 140 L 338 138 L 339 138 L 339 137 L 340 137 L 340 136 L 341 136 L 341 135 L 342 135 L 342 134 L 343 134 L 343 133 L 344 133 L 344 131 L 345 131 L 345 130 L 346 130 L 346 129 L 347 129 L 347 128 L 348 128 L 348 126 L 349 126 L 349 92 L 348 92 L 348 87 L 347 87 L 347 86 L 346 86 L 346 85 L 344 85 L 344 84 L 343 84 L 343 81 L 344 81 L 344 79 L 345 79 L 345 78 L 346 78 L 346 76 L 347 76 L 347 75 L 348 75 L 348 73 L 349 73 L 349 72 L 350 72 L 350 70 L 351 70 L 351 68 L 352 68 L 352 67 L 353 67 L 353 65 L 354 65 L 354 64 L 355 64 L 355 63 L 356 63 L 356 61 L 357 61 L 357 60 L 358 60 L 358 58 L 359 58 L 359 57 L 360 57 L 360 56 L 361 56 L 361 54 L 362 54 L 362 53 L 363 53 L 363 51 L 364 51 L 364 50 L 365 50 L 365 48 L 366 48 L 366 47 L 367 47 L 367 48 L 369 48 L 369 49 L 370 49 L 370 50 L 371 50 L 371 51 L 373 51 L 373 52 L 375 52 L 375 51 L 377 51 L 377 49 L 378 49 L 378 45 L 379 45 L 379 40 L 380 40 L 380 37 L 381 37 L 381 35 L 382 35 L 382 34 L 383 34 L 383 32 L 384 32 L 384 30 L 387 30 L 387 31 L 388 31 L 388 32 L 390 32 L 390 33 L 392 33 L 392 34 L 393 34 L 393 35 L 395 35 L 395 36 L 394 36 L 394 37 L 393 37 L 393 39 L 392 39 L 392 44 L 391 44 L 391 56 L 392 56 L 392 57 L 393 57 L 393 58 L 394 58 L 394 59 L 396 59 L 396 60 L 398 60 L 398 61 L 400 61 L 400 62 L 403 62 L 403 63 L 405 63 L 405 64 L 407 64 L 407 65 L 409 65 L 409 66 L 411 66 L 411 67 L 413 67 L 413 68 L 415 68 L 415 69 L 417 69 L 417 70 L 419 70 L 419 71 L 421 71 L 421 72 L 423 72 L 423 73 L 424 73 L 424 75 L 423 75 L 423 77 L 422 77 L 422 78 L 421 78 L 421 79 L 420 79 L 420 81 L 419 81 L 419 92 L 420 92 L 420 122 L 421 122 L 421 124 L 423 124 L 423 125 L 425 125 L 425 126 L 428 126 L 428 127 L 430 127 L 430 128 L 433 128 L 433 129 L 435 129 L 435 130 L 436 130 L 436 138 L 435 138 L 435 141 L 434 141 L 434 142 L 433 142 L 433 144 L 432 144 L 432 151 L 433 151 L 433 157 L 432 157 L 432 159 L 431 159 L 431 161 L 430 161 L 430 164 L 429 164 L 429 166 L 428 166 L 428 168 L 427 168 L 427 170 L 426 170 L 426 173 L 425 173 L 425 175 L 424 175 L 424 177 L 423 177 L 423 181 L 424 181 L 424 182 L 425 182 L 425 183 L 429 183 L 429 182 L 431 182 L 431 181 L 433 181 L 433 180 L 434 180 L 434 179 L 436 179 L 436 178 L 438 178 L 438 177 L 439 177 L 439 176 L 441 176 L 441 175 L 443 175 L 443 174 L 444 174 L 444 173 L 446 173 L 446 172 L 448 172 L 448 171 L 449 171 L 449 172 L 451 172 L 451 173 L 454 173 L 454 174 L 457 174 L 457 175 L 460 175 L 460 176 L 463 176 L 463 177 L 465 177 L 465 178 L 468 178 L 468 179 L 471 179 L 471 180 L 474 180 L 474 181 L 477 181 L 477 182 L 479 182 L 479 183 L 482 183 L 482 184 L 485 184 L 485 185 L 488 185 L 488 186 L 491 186 L 491 187 L 493 187 L 493 188 L 491 188 L 491 189 L 490 189 L 490 191 L 489 191 L 489 194 L 490 194 L 490 204 L 491 204 L 491 213 L 492 213 L 492 214 L 493 214 L 493 215 L 496 215 L 496 216 L 500 216 L 500 217 L 504 217 L 504 218 L 509 218 L 509 219 L 512 219 L 512 220 L 516 220 L 516 221 L 521 221 L 521 222 L 525 222 L 525 223 L 529 223 L 529 224 L 533 224 L 533 225 L 537 225 L 537 226 L 541 226 L 541 227 L 545 227 L 545 228 L 549 228 L 549 229 L 553 229 L 553 230 L 557 230 L 557 231 L 561 231 L 561 232 L 565 232 L 565 233 L 570 233 L 570 234 L 571 234 L 571 233 L 573 233 L 573 232 L 574 232 L 574 223 L 575 223 L 575 214 L 576 214 L 576 213 L 578 213 L 578 212 L 579 212 L 579 211 L 581 211 L 581 210 L 582 210 L 582 209 L 584 209 L 584 208 L 585 208 L 585 207 L 586 207 L 586 198 L 585 198 L 585 190 L 584 190 L 584 181 L 583 181 L 583 172 L 582 172 L 582 170 L 581 170 L 581 169 L 579 169 L 579 168 L 578 168 L 578 167 L 579 167 L 579 166 L 581 166 L 581 165 L 582 165 L 582 164 L 584 164 L 584 163 L 586 163 L 586 162 L 587 162 L 587 161 L 590 161 L 590 160 L 591 160 L 591 159 L 593 159 L 593 158 L 595 158 L 595 157 L 597 157 L 597 156 L 599 156 L 599 155 L 600 155 L 600 152 L 601 152 L 601 150 L 600 150 L 600 130 L 601 130 L 601 129 L 602 129 L 602 127 L 603 127 L 603 126 L 604 126 L 604 123 L 605 123 L 605 120 L 606 120 L 606 119 L 607 119 L 607 123 L 608 123 L 608 128 L 609 128 L 609 133 L 610 133 L 610 138 L 611 138 L 611 144 L 612 144 L 612 146 L 613 146 L 613 147 L 614 147 L 614 148 L 616 148 L 616 149 L 618 149 L 618 150 L 620 150 L 620 151 L 622 151 L 622 152 L 624 152 L 624 153 L 625 153 L 625 154 L 627 154 L 627 155 L 629 155 L 629 156 L 631 156 L 631 157 L 633 157 L 633 158 L 635 158 L 635 160 L 634 160 L 634 162 L 633 162 L 633 163 L 632 163 L 632 165 L 631 165 L 631 168 L 632 168 L 632 176 L 633 176 L 633 184 L 634 184 L 634 191 L 635 191 L 635 198 L 636 198 L 636 199 L 637 199 L 637 200 L 639 200 L 639 201 L 641 201 L 641 202 L 643 202 L 643 203 L 646 203 L 646 204 L 648 204 L 648 205 L 651 205 L 651 206 L 653 206 L 653 205 L 657 205 L 657 204 L 662 204 L 662 203 L 667 203 L 667 202 L 671 202 L 671 201 L 676 201 L 676 200 L 681 200 L 681 199 L 685 199 L 685 198 L 689 198 L 689 197 L 694 197 L 694 196 L 700 196 L 700 197 L 701 197 L 701 198 L 702 198 L 702 200 L 703 200 L 703 201 L 704 201 L 704 203 L 705 203 L 705 204 L 706 204 L 706 205 L 707 205 L 707 207 L 708 207 L 708 208 L 709 208 L 709 209 L 707 209 L 707 210 L 706 210 L 706 211 L 705 211 L 705 221 L 706 221 L 706 260 L 707 260 L 707 298 L 708 298 L 708 337 L 709 337 L 709 375 L 710 375 L 710 399 L 711 399 L 711 400 L 712 400 L 712 401 L 737 401 L 737 402 L 817 402 L 817 403 L 885 403 L 885 402 L 886 402 L 886 400 L 887 400 L 887 399 L 886 399 L 886 397 L 884 397 L 884 396 L 827 396 L 827 395 L 746 395 L 746 394 L 718 394 L 718 375 L 717 375 L 717 337 L 716 337 L 716 299 L 715 299 L 715 260 L 714 260 L 714 222 L 713 222 L 713 215 L 714 215 L 714 214 L 716 214 L 716 213 L 718 213 L 718 212 L 719 212 L 719 209 L 718 209 L 718 207 L 717 207 L 717 206 L 716 206 L 716 204 L 715 204 L 715 203 L 714 203 L 714 202 L 713 202 L 713 200 L 712 200 L 712 199 L 711 199 L 711 197 L 710 197 L 710 196 L 709 196 L 709 195 L 708 195 L 708 193 L 707 193 L 707 192 L 706 192 L 706 190 L 705 190 L 705 189 L 704 189 L 704 188 L 703 188 L 703 187 L 698 187 L 698 188 L 693 188 L 693 189 L 689 189 L 689 190 L 684 190 L 684 191 L 680 191 L 680 192 L 675 192 L 675 193 L 671 193 L 671 194 L 666 194 L 666 195 L 662 195 L 662 196 L 658 196 L 658 197 L 653 197 L 653 198 L 652 198 L 652 197 L 649 197 L 649 196 L 647 196 L 647 195 L 644 195 L 644 194 L 642 194 L 642 190 L 641 190 L 641 181 L 640 181 L 640 173 L 639 173 L 639 166 L 640 166 L 640 164 L 641 164 L 641 163 L 642 163 L 642 161 L 643 161 L 643 160 L 644 160 L 644 155 L 643 155 L 643 154 L 641 154 L 641 153 L 639 153 L 639 152 L 638 152 L 638 151 L 636 151 L 636 150 L 634 150 L 634 149 L 632 149 L 632 148 L 631 148 L 631 147 L 629 147 L 629 146 L 627 146 L 627 145 L 625 145 L 625 144 L 624 144 L 624 143 L 622 143 L 622 142 L 620 142 L 620 141 L 619 141 L 619 138 L 618 138 L 618 132 L 617 132 L 617 127 L 616 127 L 616 122 L 615 122 L 615 119 L 614 119 L 614 115 L 613 115 L 613 112 L 612 112 L 612 109 L 611 109 L 611 106 L 610 106 L 610 103 L 609 103 L 609 102 L 608 102 L 608 101 L 604 101 L 604 102 L 603 102 L 603 103 L 602 103 L 602 107 L 601 107 L 601 110 L 600 110 L 600 113 L 599 113 L 599 118 L 598 118 L 598 121 L 597 121 L 597 123 L 596 123 L 596 125 L 595 125 L 595 126 L 594 126 L 594 128 L 593 128 L 593 150 L 592 150 L 592 151 L 590 151 L 590 152 L 589 152 L 589 153 L 587 153 L 587 154 L 585 154 L 585 155 L 583 155 L 583 156 L 582 156 L 582 157 L 580 157 L 580 158 L 578 158 L 578 159 L 576 159 L 576 160 L 574 160 L 574 161 L 573 161 L 573 162 L 571 162 L 571 163 L 569 163 L 569 164 L 567 164 L 567 166 L 566 166 L 566 169 L 567 169 L 567 170 L 568 170 L 568 171 L 570 171 L 570 172 L 571 172 L 571 173 L 573 173 L 573 174 L 574 174 L 574 175 L 575 175 L 575 181 L 576 181 L 576 189 L 577 189 L 577 198 L 578 198 L 578 204 L 576 204 L 576 205 L 575 205 L 575 206 L 573 206 L 573 207 L 572 207 L 572 208 L 570 208 L 570 209 L 569 209 L 569 210 L 568 210 L 568 211 L 567 211 L 567 222 L 566 222 L 566 224 L 562 224 L 562 223 L 558 223 L 558 222 L 554 222 L 554 221 L 549 221 L 549 220 L 545 220 L 545 219 L 541 219 L 541 218 L 536 218 L 536 217 L 532 217 L 532 216 L 528 216 L 528 215 L 523 215 L 523 214 L 519 214 L 519 213 L 515 213 L 515 212 L 510 212 L 510 211 L 506 211 L 506 210 L 502 210 L 502 209 L 498 209 L 498 202 L 497 202 L 497 194 L 499 194 L 499 193 L 500 193 L 500 192 L 502 192 L 502 191 L 504 191 L 504 190 L 506 190 L 506 188 L 507 188 L 507 185 L 506 185 L 506 184 L 505 184 L 505 183 L 503 183 L 503 182 L 500 182 L 500 181 L 498 181 L 498 180 L 495 180 L 495 179 L 492 179 L 492 178 L 489 178 L 489 177 L 486 177 L 486 176 L 483 176 L 483 175 L 481 175 L 481 174 L 478 174 L 478 173 L 475 173 L 475 172 L 472 172 L 472 171 L 469 171 L 469 170 L 466 170 L 466 169 L 463 169 L 463 168 L 460 168 L 460 167 L 456 167 L 456 166 L 453 166 L 453 165 L 451 165 L 451 164 L 445 164 L 445 165 L 443 165 L 443 166 L 442 166 L 442 167 L 439 167 L 439 168 L 438 168 L 438 169 L 436 169 L 436 167 L 437 167 L 437 165 L 438 165 L 438 163 L 439 163 L 439 160 L 440 160 L 440 158 L 441 158 L 441 151 L 440 151 L 440 146 L 441 146 L 441 144 L 442 144 L 442 142 L 443 142 L 443 134 L 444 134 L 444 126 L 443 126 L 443 125 L 442 125 L 442 124 L 441 124 L 441 123 L 439 123 L 439 122 L 436 122 L 436 121 L 433 121 L 433 120 L 431 120 L 431 119 L 428 119 L 428 92 L 427 92 L 427 83 L 428 83 L 428 82 L 429 82 L 429 80 L 430 80 L 430 79 L 431 79 L 431 78 L 432 78 L 432 77 L 433 77 L 433 75 L 434 75 L 434 74 L 435 74 L 435 71 L 434 71 L 434 70 L 433 70 L 433 69 L 431 69 L 431 68 L 429 68 L 429 67 L 427 67 L 427 66 L 425 66 L 425 65 L 423 65 L 423 64 L 421 64 L 421 63 L 419 63 L 419 62 L 417 62 L 417 61 L 415 61 L 415 60 L 413 60 L 413 59 L 411 59 L 411 58 L 409 58 L 409 57 L 407 57 L 407 56 L 405 56 L 405 55 L 403 55 L 403 54 L 402 54 L 402 53 L 400 53 L 400 52 L 398 52 L 398 48 L 399 48 L 399 42 L 400 42 L 400 41 L 401 41 L 401 40 L 402 40 L 402 39 L 403 39 L 403 37 L 404 37 L 404 32 L 403 32 L 403 31 L 402 31 L 402 30 L 400 30 L 400 29 L 398 29 L 398 28 L 397 28 L 397 27 L 395 27 L 395 26 L 393 26 L 393 25 L 392 25 L 392 24 L 390 24 L 390 23 L 388 23 L 388 22 L 387 22 L 387 21 L 384 21 L 384 20 L 383 20 L 383 21 L 381 21 L 381 22 L 380 22 L 380 23 L 379 23 L 379 25 L 378 25 L 378 26 L 377 26 L 377 28 L 376 28 L 376 30 L 375 30 L 375 31 L 374 31 L 374 33 L 373 33 L 373 35 L 372 35 L 372 39 L 371 39 L 371 40 L 370 40 L 370 39 L 369 39 L 369 38 L 367 38 L 367 37 L 365 37 L 365 38 L 363 38 L 363 39 L 362 39 L 362 41 L 361 41 L 361 42 L 360 42 L 360 44 L 359 44 L 359 45 L 358 45 L 358 47 L 357 47 L 357 48 L 356 48 L 356 50 L 355 50 L 355 51 L 354 51 L 354 53 L 353 53 L 353 54 L 352 54 L 352 56 L 351 56 L 351 57 L 350 57 L 350 58 L 349 58 L 349 60 L 348 60 L 348 61 L 347 61 L 347 63 L 346 63 L 346 64 L 345 64 L 345 66 L 344 66 L 344 67 L 343 67 L 343 69 L 342 69 L 342 70 L 341 70 L 341 71 L 340 71 L 340 73 L 339 73 L 339 74 L 338 74 L 338 76 L 337 76 L 337 77 L 336 77 L 336 78 L 335 78 L 335 80 L 334 80 L 334 82 L 333 82 L 333 85 L 334 85 L 334 86 L 335 86 L 335 87 L 336 87 L 336 88 L 337 88 L 337 89 L 338 89 L 338 90 L 339 90 L 339 91 L 341 91 L 341 120 L 342 120 L 342 123 L 341 123 L 341 124 L 340 124 L 340 125 L 339 125 L 339 126 L 338 126 L 338 127 L 337 127 L 337 128 L 336 128 L 336 130 L 335 130 L 335 131 L 334 131 L 334 132 L 333 132 L 333 133 L 332 133 L 332 134 L 331 134 L 331 135 L 330 135 L 330 137 L 329 137 L 329 138 L 328 138 L 328 139 L 327 139 L 327 140 L 326 140 L 326 158 L 327 158 L 327 174 L 328 174 L 328 177 L 329 177 L 329 179 L 328 179 L 328 178 L 326 178 L 326 177 L 324 177 L 324 176 L 321 176 L 321 175 L 319 175 L 319 174 L 317 174 L 317 173 L 316 173 L 316 159 L 317 159 L 317 157 L 318 157 L 318 155 L 319 155 L 319 150 L 318 150 L 318 149 L 317 149 L 317 148 L 316 148 L 316 147 L 315 147 L 315 146 L 314 146 L 314 145 L 312 145 L 312 144 L 311 144 L 311 143 L 310 143 L 310 142 L 309 142 L 309 139 L 308 139 L 308 130 L 307 130 L 307 121 L 306 121 L 306 116 L 305 116 L 305 115 L 304 115 L 304 114 L 302 114 L 302 115 L 300 115 L 300 116 L 299 116 L 299 132 L 298 132 L 298 142 L 296 142 L 296 143 L 295 143 L 295 144 L 293 144 L 293 145 L 292 145 L 292 146 L 290 146 L 290 147 L 289 147 L 289 148 L 287 148 L 287 149 L 286 149 L 286 150 L 285 150 L 285 154 L 286 154 L 286 156 L 287 156 L 287 158 L 288 158 L 288 169 L 287 169 L 287 170 L 282 170 L 282 171 L 281 171 L 281 172 L 280 172 L 280 174 L 279 174 L 279 177 L 278 177 L 278 179 L 277 179 L 277 181 L 276 181 L 276 183 L 275 183 L 275 185 L 274 185 L 274 188 L 273 188 L 273 190 L 272 190 L 272 192 L 271 192 L 271 194 L 270 194 L 270 203 L 271 203 L 271 214 L 272 214 L 272 215 L 271 215 L 271 217 L 270 217 L 270 218 L 269 218 L 269 220 L 268 220 L 268 222 L 267 222 L 267 223 L 266 223 L 266 225 L 265 225 L 265 227 L 264 227 L 264 228 L 263 228 L 263 230 L 262 230 L 262 240 L 263 240 L 263 245 L 262 245 L 262 246 L 257 246 L 257 247 L 256 247 L 256 248 L 255 248 L 255 249 L 254 249 L 254 250 L 253 250 L 253 252 L 252 252 L 252 253 L 251 253 L 251 254 L 250 254 L 250 255 L 249 255 L 249 257 L 248 257 L 248 258 L 247 258 L 247 259 L 246 259 L 246 260 L 245 260 L 245 262 L 244 262 L 244 263 L 243 263 L 243 266 L 244 266 L 244 267 L 245 267 L 245 268 L 250 268 L 250 269 L 251 269 L 251 271 L 249 271 L 249 272 L 246 272 L 246 273 L 244 273 L 244 274 L 242 274 L 242 275 L 240 275 L 240 276 L 239 276 L 239 277 L 238 277 L 238 289 L 239 289 L 239 294 L 240 294 L 240 298 L 241 298 L 241 302 L 242 302 L 242 306 L 243 306 L 243 330 L 244 330 L 244 395 L 229 395 L 229 390 L 228 390 L 228 377 L 227 377 L 227 348 L 226 348 L 226 346 L 225 346 L 225 345 L 201 345 L 201 343 L 200 343 L 200 342 L 199 342 L 199 340 L 198 340 L 198 338 L 197 338 L 197 337 L 196 337 L 196 336 L 195 336 L 195 335 L 194 335 L 194 334 L 193 334 L 193 333 L 192 333 L 192 332 L 191 332 L 191 331 L 190 331 L 190 330 L 189 330 L 189 329 L 188 329 L 188 328 L 186 328 L 186 327 L 174 327 L 174 328 L 172 328 L 172 329 L 171 329 L 171 332 L 170 332 L 170 335 L 169 335 L 169 338 L 168 338 L 168 394 L 131 394 L 131 393 L 87 393 L 87 392 L 42 392 L 42 391 L 28 391 L 28 392 L 26 392 L 26 393 L 25 393 Z M 325 218 L 326 218 L 326 219 L 328 219 L 328 218 L 329 218 L 329 217 L 330 217 L 330 216 L 331 216 L 331 210 L 332 210 L 332 185 L 331 185 L 331 184 L 330 184 L 330 185 L 329 185 L 329 187 L 328 187 L 328 189 L 327 189 L 327 190 L 326 190 L 326 192 L 325 192 Z" />
      <path class="landing-intro-logo__mask-trace" style="--draw-delay:2.2698s;--draw-duration:0.1648s" d="M 82 535 L 82 536 L 83 536 L 83 547 L 20 547 L 20 436 L 34 436 L 34 535 Z" />
      <path class="landing-intro-logo__mask-trace" style="--draw-delay:2.4346s;--draw-duration:0.3600s" d="M 195 511 L 194 511 L 194 515 L 193 515 L 193 518 L 192 518 L 192 521 L 191 521 L 191 523 L 190 523 L 190 525 L 189 525 L 189 526 L 188 526 L 188 528 L 187 528 L 187 530 L 186 530 L 186 531 L 185 531 L 185 532 L 184 532 L 184 533 L 183 533 L 183 534 L 182 534 L 182 535 L 181 535 L 181 536 L 180 536 L 180 537 L 179 537 L 179 538 L 178 538 L 178 539 L 177 539 L 177 540 L 175 540 L 175 541 L 174 541 L 174 542 L 172 542 L 172 543 L 170 543 L 170 544 L 168 544 L 168 545 L 166 545 L 166 546 L 163 546 L 163 547 L 159 547 L 159 548 L 153 548 L 153 549 L 137 549 L 137 548 L 131 548 L 131 547 L 128 547 L 128 546 L 125 546 L 125 545 L 122 545 L 122 544 L 120 544 L 120 543 L 118 543 L 118 542 L 117 542 L 117 541 L 115 541 L 115 540 L 114 540 L 114 539 L 113 539 L 113 538 L 111 538 L 111 537 L 110 537 L 110 536 L 109 536 L 109 535 L 108 535 L 108 534 L 107 534 L 107 532 L 106 532 L 106 531 L 105 531 L 105 530 L 104 530 L 104 528 L 103 528 L 103 526 L 102 526 L 102 525 L 101 525 L 101 523 L 100 523 L 100 520 L 99 520 L 99 518 L 98 518 L 98 515 L 97 515 L 97 511 L 96 511 L 96 505 L 95 505 L 95 492 L 94 492 L 94 491 L 95 491 L 95 478 L 96 478 L 96 472 L 97 472 L 97 469 L 98 469 L 98 466 L 99 466 L 99 463 L 100 463 L 100 461 L 101 461 L 101 459 L 102 459 L 102 457 L 103 457 L 103 455 L 104 455 L 104 454 L 105 454 L 105 452 L 106 452 L 106 451 L 107 451 L 107 450 L 108 450 L 108 449 L 109 449 L 109 448 L 110 448 L 110 447 L 111 447 L 111 446 L 112 446 L 112 445 L 113 445 L 113 444 L 115 444 L 115 443 L 116 443 L 116 442 L 118 442 L 118 441 L 119 441 L 119 440 L 122 440 L 122 439 L 124 439 L 124 438 L 126 438 L 126 437 L 129 437 L 129 436 L 135 436 L 135 435 L 157 435 L 157 436 L 162 436 L 162 437 L 165 437 L 165 438 L 168 438 L 168 439 L 170 439 L 170 440 L 172 440 L 172 441 L 173 441 L 173 442 L 175 442 L 175 443 L 176 443 L 176 444 L 178 444 L 178 445 L 179 445 L 179 446 L 180 446 L 180 447 L 181 447 L 181 448 L 182 448 L 182 449 L 183 449 L 183 450 L 184 450 L 184 451 L 185 451 L 185 452 L 186 452 L 186 454 L 187 454 L 187 455 L 188 455 L 188 457 L 189 457 L 189 459 L 190 459 L 190 461 L 191 461 L 191 463 L 192 463 L 192 465 L 193 465 L 193 468 L 194 468 L 194 472 L 195 472 L 195 477 L 196 477 L 196 484 L 197 484 L 197 499 L 196 499 L 196 507 L 195 507 Z M 140 537 L 151 537 L 151 536 L 157 536 L 157 535 L 161 535 L 161 534 L 163 534 L 163 533 L 165 533 L 165 532 L 166 532 L 166 531 L 168 531 L 168 530 L 169 530 L 169 529 L 170 529 L 170 528 L 171 528 L 171 527 L 172 527 L 172 526 L 173 526 L 173 525 L 174 525 L 174 523 L 175 523 L 175 522 L 176 522 L 176 520 L 177 520 L 177 518 L 178 518 L 178 515 L 179 515 L 179 513 L 180 513 L 180 509 L 181 509 L 181 503 L 182 503 L 182 480 L 181 480 L 181 475 L 180 475 L 180 471 L 179 471 L 179 468 L 178 468 L 178 466 L 177 466 L 177 464 L 176 464 L 176 462 L 175 462 L 175 460 L 174 460 L 174 459 L 173 459 L 173 458 L 172 458 L 172 457 L 171 457 L 171 456 L 170 456 L 170 455 L 169 455 L 169 454 L 168 454 L 168 453 L 167 453 L 167 452 L 165 452 L 165 451 L 163 451 L 163 450 L 161 450 L 161 449 L 158 449 L 158 448 L 153 448 L 153 447 L 139 447 L 139 448 L 134 448 L 134 449 L 131 449 L 131 450 L 129 450 L 129 451 L 126 451 L 126 452 L 125 452 L 125 453 L 123 453 L 123 454 L 122 454 L 122 455 L 121 455 L 121 456 L 120 456 L 120 457 L 119 457 L 119 458 L 118 458 L 118 460 L 117 460 L 117 461 L 116 461 L 116 463 L 115 463 L 115 464 L 114 464 L 114 467 L 113 467 L 113 469 L 112 469 L 112 472 L 111 472 L 111 476 L 110 476 L 110 482 L 109 482 L 109 502 L 110 502 L 110 507 L 111 507 L 111 512 L 112 512 L 112 514 L 113 514 L 113 517 L 114 517 L 114 519 L 115 519 L 115 521 L 116 521 L 116 522 L 117 522 L 117 524 L 118 524 L 118 526 L 119 526 L 119 527 L 120 527 L 120 528 L 121 528 L 121 529 L 123 529 L 123 530 L 124 530 L 124 531 L 125 531 L 125 532 L 127 532 L 127 533 L 129 533 L 129 534 L 131 534 L 131 535 L 134 535 L 134 536 L 140 536 Z" />
      <path class="landing-intro-logo__mask-trace" style="--draw-delay:2.7946s;--draw-duration:0.2596s" d="M 284 547 L 284 548 L 276 548 L 276 549 L 259 549 L 259 548 L 252 548 L 252 547 L 248 547 L 248 546 L 245 546 L 245 545 L 243 545 L 243 544 L 240 544 L 240 543 L 239 543 L 239 542 L 237 542 L 237 541 L 235 541 L 235 540 L 234 540 L 234 539 L 233 539 L 233 538 L 232 538 L 232 537 L 231 537 L 231 536 L 230 536 L 230 535 L 229 535 L 229 534 L 228 534 L 228 533 L 227 533 L 227 532 L 226 532 L 226 531 L 225 531 L 225 529 L 224 529 L 224 528 L 223 528 L 223 526 L 222 526 L 222 524 L 221 524 L 221 522 L 220 522 L 220 520 L 219 520 L 219 517 L 218 517 L 218 514 L 217 514 L 217 510 L 216 510 L 216 504 L 215 504 L 215 481 L 216 481 L 216 475 L 217 475 L 217 472 L 218 472 L 218 468 L 219 468 L 219 466 L 220 466 L 220 463 L 221 463 L 221 461 L 222 461 L 222 459 L 223 459 L 223 458 L 224 458 L 224 456 L 225 456 L 225 455 L 226 455 L 226 453 L 227 453 L 227 452 L 228 452 L 228 451 L 229 451 L 229 450 L 230 450 L 230 449 L 231 449 L 231 448 L 232 448 L 232 447 L 233 447 L 233 446 L 234 446 L 234 445 L 235 445 L 235 444 L 237 444 L 237 443 L 238 443 L 238 442 L 240 442 L 240 441 L 242 441 L 242 440 L 244 440 L 244 439 L 247 439 L 247 438 L 250 438 L 250 437 L 253 437 L 253 436 L 259 436 L 259 435 L 278 435 L 278 436 L 285 436 L 285 437 L 289 437 L 289 438 L 292 438 L 292 439 L 295 439 L 295 440 L 297 440 L 297 441 L 299 441 L 299 443 L 298 443 L 298 445 L 297 445 L 297 447 L 296 447 L 296 449 L 295 449 L 295 451 L 294 451 L 294 453 L 292 453 L 292 452 L 289 452 L 289 451 L 287 451 L 287 450 L 284 450 L 284 449 L 280 449 L 280 448 L 275 448 L 275 447 L 263 447 L 263 448 L 257 448 L 257 449 L 254 449 L 254 450 L 251 450 L 251 451 L 249 451 L 249 452 L 248 452 L 248 453 L 246 453 L 246 454 L 245 454 L 245 455 L 243 455 L 243 456 L 242 456 L 242 457 L 241 457 L 241 458 L 240 458 L 240 459 L 239 459 L 239 461 L 238 461 L 238 462 L 237 462 L 237 464 L 236 464 L 236 465 L 235 465 L 235 467 L 234 467 L 234 470 L 233 470 L 233 472 L 232 472 L 232 475 L 231 475 L 231 480 L 230 480 L 230 489 L 229 489 L 229 495 L 230 495 L 230 505 L 231 505 L 231 509 L 232 509 L 232 513 L 233 513 L 233 515 L 234 515 L 234 518 L 235 518 L 235 519 L 236 519 L 236 521 L 237 521 L 237 522 L 238 522 L 238 524 L 239 524 L 239 525 L 240 525 L 240 526 L 241 526 L 241 527 L 242 527 L 242 528 L 243 528 L 243 529 L 244 529 L 244 530 L 246 530 L 246 531 L 247 531 L 247 532 L 249 532 L 249 533 L 251 533 L 251 534 L 254 534 L 254 535 L 257 535 L 257 536 L 265 536 L 265 537 L 274 537 L 274 536 L 281 536 L 281 535 L 286 535 L 286 534 L 290 534 L 290 533 L 295 533 L 295 545 L 292 545 L 292 546 L 289 546 L 289 547 Z" />
      <path class="landing-intro-logo__mask-trace" style="--draw-delay:3.0542s;--draw-duration:0.3079s" d="M 320 540 L 319 540 L 319 542 L 318 542 L 318 545 L 317 545 L 317 547 L 303 547 L 303 545 L 304 545 L 304 543 L 305 543 L 305 540 L 306 540 L 306 538 L 307 538 L 307 535 L 308 535 L 308 533 L 309 533 L 309 530 L 310 530 L 310 527 L 311 527 L 311 525 L 312 525 L 312 522 L 313 522 L 313 520 L 314 520 L 314 517 L 315 517 L 315 515 L 316 515 L 316 512 L 317 512 L 317 510 L 318 510 L 318 507 L 319 507 L 319 505 L 320 505 L 320 502 L 321 502 L 321 500 L 322 500 L 322 497 L 323 497 L 323 494 L 324 494 L 324 492 L 325 492 L 325 489 L 326 489 L 326 487 L 327 487 L 327 484 L 328 484 L 328 482 L 329 482 L 329 479 L 330 479 L 330 477 L 331 477 L 331 474 L 332 474 L 332 472 L 333 472 L 333 469 L 334 469 L 334 466 L 335 466 L 335 464 L 336 464 L 336 461 L 337 461 L 337 459 L 338 459 L 338 456 L 339 456 L 339 454 L 340 454 L 340 451 L 341 451 L 341 449 L 342 449 L 342 446 L 343 446 L 343 444 L 344 444 L 344 441 L 345 441 L 345 439 L 346 439 L 346 436 L 358 436 L 358 437 L 359 437 L 359 440 L 360 440 L 360 442 L 361 442 L 361 445 L 362 445 L 362 448 L 363 448 L 363 450 L 364 450 L 364 453 L 365 453 L 365 455 L 366 455 L 366 458 L 367 458 L 367 460 L 368 460 L 368 463 L 369 463 L 369 465 L 370 465 L 370 468 L 371 468 L 371 471 L 372 471 L 372 473 L 373 473 L 373 476 L 374 476 L 374 478 L 375 478 L 375 481 L 376 481 L 376 483 L 377 483 L 377 486 L 378 486 L 378 488 L 379 488 L 379 491 L 380 491 L 380 494 L 381 494 L 381 496 L 382 496 L 382 499 L 383 499 L 383 501 L 384 501 L 384 504 L 385 504 L 385 506 L 386 506 L 386 509 L 387 509 L 387 511 L 388 511 L 388 514 L 389 514 L 389 517 L 390 517 L 390 519 L 391 519 L 391 522 L 392 522 L 392 524 L 393 524 L 393 527 L 394 527 L 394 529 L 395 529 L 395 532 L 396 532 L 396 534 L 397 534 L 397 537 L 398 537 L 398 540 L 399 540 L 399 542 L 400 542 L 400 545 L 401 545 L 401 547 L 387 547 L 387 545 L 386 545 L 386 543 L 385 543 L 385 540 L 384 540 L 384 537 L 383 537 L 383 535 L 382 535 L 382 532 L 381 532 L 381 530 L 380 530 L 380 527 L 379 527 L 379 525 L 378 525 L 378 522 L 377 522 L 377 520 L 376 520 L 376 517 L 375 517 L 375 514 L 374 514 L 374 512 L 330 512 L 330 514 L 329 514 L 329 516 L 328 516 L 328 519 L 327 519 L 327 522 L 326 522 L 326 524 L 325 524 L 325 527 L 324 527 L 324 529 L 323 529 L 323 532 L 322 532 L 322 535 L 321 535 L 321 537 L 320 537 Z M 356 463 L 355 463 L 355 460 L 354 460 L 354 457 L 353 457 L 353 453 L 352 453 L 352 454 L 351 454 L 351 458 L 350 458 L 350 461 L 349 461 L 349 464 L 348 464 L 348 467 L 347 467 L 347 470 L 346 470 L 346 472 L 345 472 L 345 475 L 344 475 L 344 477 L 343 477 L 343 480 L 342 480 L 342 483 L 341 483 L 341 485 L 340 485 L 340 488 L 339 488 L 339 491 L 338 491 L 338 493 L 337 493 L 337 496 L 336 496 L 336 499 L 335 499 L 335 500 L 369 500 L 369 498 L 368 498 L 368 495 L 367 495 L 367 492 L 366 492 L 366 490 L 365 490 L 365 487 L 364 487 L 364 484 L 363 484 L 363 482 L 362 482 L 362 479 L 361 479 L 361 476 L 360 476 L 360 474 L 359 474 L 359 471 L 358 471 L 358 468 L 357 468 L 357 466 L 356 466 Z" />
      <path class="landing-intro-logo__mask-trace" style="--draw-delay:3.3621s;--draw-duration:0.3638s" d="M 416 436 L 431 436 L 431 437 L 432 437 L 432 439 L 433 439 L 433 440 L 434 440 L 434 442 L 435 442 L 435 443 L 436 443 L 436 445 L 437 445 L 437 446 L 438 446 L 438 448 L 439 448 L 439 450 L 440 450 L 440 451 L 441 451 L 441 453 L 442 453 L 442 454 L 443 454 L 443 456 L 444 456 L 444 457 L 445 457 L 445 459 L 446 459 L 446 460 L 447 460 L 447 462 L 448 462 L 448 463 L 449 463 L 449 465 L 450 465 L 450 466 L 451 466 L 451 468 L 452 468 L 452 470 L 453 470 L 453 471 L 454 471 L 454 473 L 455 473 L 455 474 L 456 474 L 456 476 L 457 476 L 457 477 L 458 477 L 458 479 L 459 479 L 459 480 L 460 480 L 460 482 L 461 482 L 461 483 L 462 483 L 462 485 L 463 485 L 463 486 L 464 486 L 464 488 L 465 488 L 465 489 L 466 489 L 466 491 L 467 491 L 467 493 L 468 493 L 468 494 L 469 494 L 469 496 L 470 496 L 470 497 L 471 497 L 471 499 L 472 499 L 472 500 L 473 500 L 473 502 L 474 502 L 474 503 L 475 503 L 475 505 L 476 505 L 476 506 L 477 506 L 477 508 L 478 508 L 478 509 L 479 509 L 479 511 L 480 511 L 480 513 L 481 513 L 481 514 L 482 514 L 482 516 L 483 516 L 483 517 L 484 517 L 484 519 L 485 519 L 485 520 L 486 520 L 486 522 L 487 522 L 487 523 L 488 523 L 488 525 L 489 525 L 489 526 L 490 526 L 490 528 L 491 528 L 491 522 L 490 522 L 490 436 L 503 436 L 503 547 L 487 547 L 487 546 L 486 546 L 486 545 L 485 545 L 485 543 L 484 543 L 484 541 L 483 541 L 483 540 L 482 540 L 482 538 L 481 538 L 481 537 L 480 537 L 480 535 L 479 535 L 479 534 L 478 534 L 478 532 L 477 532 L 477 531 L 476 531 L 476 529 L 475 529 L 475 528 L 474 528 L 474 526 L 473 526 L 473 525 L 472 525 L 472 523 L 471 523 L 471 521 L 470 521 L 470 520 L 469 520 L 469 518 L 468 518 L 468 517 L 467 517 L 467 515 L 466 515 L 466 514 L 465 514 L 465 512 L 464 512 L 464 511 L 463 511 L 463 509 L 462 509 L 462 508 L 461 508 L 461 506 L 460 506 L 460 505 L 459 505 L 459 503 L 458 503 L 458 502 L 457 502 L 457 500 L 456 500 L 456 498 L 455 498 L 455 497 L 454 497 L 454 495 L 453 495 L 453 494 L 452 494 L 452 492 L 451 492 L 451 491 L 450 491 L 450 489 L 449 489 L 449 488 L 448 488 L 448 486 L 447 486 L 447 485 L 446 485 L 446 483 L 445 483 L 445 482 L 444 482 L 444 480 L 443 480 L 443 478 L 442 478 L 442 477 L 441 477 L 441 475 L 440 475 L 440 474 L 439 474 L 439 472 L 438 472 L 438 471 L 437 471 L 437 469 L 436 469 L 436 468 L 435 468 L 435 466 L 434 466 L 434 465 L 433 465 L 433 463 L 432 463 L 432 462 L 431 462 L 431 460 L 430 460 L 430 459 L 429 459 L 429 457 L 428 457 L 428 455 L 427 455 L 427 459 L 428 459 L 428 547 L 416 547 Z" />
      <path class="landing-intro-logo__mask-trace" style="--draw-delay:3.7258s;--draw-duration:0.3297s" d="M 595 443 L 597 443 L 597 444 L 599 444 L 599 445 L 600 445 L 600 446 L 602 446 L 602 447 L 603 447 L 603 448 L 604 448 L 604 449 L 605 449 L 605 450 L 606 450 L 606 451 L 607 451 L 607 452 L 608 452 L 608 453 L 609 453 L 609 454 L 610 454 L 610 455 L 611 455 L 611 457 L 612 457 L 612 458 L 613 458 L 613 460 L 614 460 L 614 462 L 615 462 L 615 464 L 616 464 L 616 466 L 617 466 L 617 469 L 618 469 L 618 472 L 619 472 L 619 477 L 620 477 L 620 484 L 621 484 L 621 498 L 620 498 L 620 506 L 619 506 L 619 510 L 618 510 L 618 514 L 617 514 L 617 516 L 616 516 L 616 519 L 615 519 L 615 521 L 614 521 L 614 523 L 613 523 L 613 525 L 612 525 L 612 526 L 611 526 L 611 527 L 610 527 L 610 529 L 609 529 L 609 530 L 608 530 L 608 531 L 607 531 L 607 532 L 606 532 L 606 533 L 605 533 L 605 534 L 604 534 L 604 535 L 603 535 L 603 536 L 602 536 L 602 537 L 600 537 L 600 538 L 599 538 L 599 539 L 597 539 L 597 540 L 595 540 L 595 541 L 593 541 L 593 542 L 591 542 L 591 543 L 588 543 L 588 544 L 585 544 L 585 545 L 582 545 L 582 546 L 576 546 L 576 547 L 532 547 L 532 436 L 571 436 L 571 437 L 579 437 L 579 438 L 585 438 L 585 439 L 588 439 L 588 440 L 591 440 L 591 441 L 593 441 L 593 442 L 595 442 Z M 546 536 L 562 536 L 562 535 L 574 535 L 574 534 L 578 534 L 578 533 L 582 533 L 582 532 L 584 532 L 584 531 L 586 531 L 586 530 L 588 530 L 588 529 L 590 529 L 590 528 L 591 528 L 591 527 L 593 527 L 593 526 L 594 526 L 594 525 L 595 525 L 595 524 L 596 524 L 596 523 L 597 523 L 597 522 L 598 522 L 598 520 L 599 520 L 599 519 L 600 519 L 600 517 L 601 517 L 601 515 L 602 515 L 602 513 L 603 513 L 603 511 L 604 511 L 604 507 L 605 507 L 605 503 L 606 503 L 606 480 L 605 480 L 605 475 L 604 475 L 604 472 L 603 472 L 603 469 L 602 469 L 602 467 L 601 467 L 601 465 L 600 465 L 600 464 L 599 464 L 599 462 L 598 462 L 598 461 L 597 461 L 597 460 L 596 460 L 596 459 L 595 459 L 595 458 L 594 458 L 594 457 L 593 457 L 593 456 L 591 456 L 591 455 L 590 455 L 590 454 L 588 454 L 588 453 L 586 453 L 586 452 L 584 452 L 584 451 L 581 451 L 581 450 L 577 450 L 577 449 L 570 449 L 570 448 L 546 448 Z" />
      <path class="landing-intro-logo__mask-trace" style="--draw-delay:4.0555s;--draw-duration:0.3079s" d="M 630 547 L 630 545 L 631 545 L 631 542 L 632 542 L 632 540 L 633 540 L 633 537 L 634 537 L 634 534 L 635 534 L 635 532 L 636 532 L 636 529 L 637 529 L 637 527 L 638 527 L 638 524 L 639 524 L 639 522 L 640 522 L 640 519 L 641 519 L 641 517 L 642 517 L 642 514 L 643 514 L 643 512 L 644 512 L 644 509 L 645 509 L 645 506 L 646 506 L 646 504 L 647 504 L 647 501 L 648 501 L 648 499 L 649 499 L 649 496 L 650 496 L 650 494 L 651 494 L 651 491 L 652 491 L 652 489 L 653 489 L 653 486 L 654 486 L 654 484 L 655 484 L 655 481 L 656 481 L 656 479 L 657 479 L 657 476 L 658 476 L 658 473 L 659 473 L 659 471 L 660 471 L 660 468 L 661 468 L 661 466 L 662 466 L 662 463 L 663 463 L 663 461 L 664 461 L 664 458 L 665 458 L 665 456 L 666 456 L 666 453 L 667 453 L 667 451 L 668 451 L 668 448 L 669 448 L 669 446 L 670 446 L 670 443 L 671 443 L 671 440 L 672 440 L 672 438 L 673 438 L 673 436 L 685 436 L 685 438 L 686 438 L 686 441 L 687 441 L 687 443 L 688 443 L 688 446 L 689 446 L 689 448 L 690 448 L 690 451 L 691 451 L 691 453 L 692 453 L 692 456 L 693 456 L 693 458 L 694 458 L 694 461 L 695 461 L 695 464 L 696 464 L 696 466 L 697 466 L 697 469 L 698 469 L 698 471 L 699 471 L 699 474 L 700 474 L 700 476 L 701 476 L 701 479 L 702 479 L 702 481 L 703 481 L 703 484 L 704 484 L 704 487 L 705 487 L 705 489 L 706 489 L 706 492 L 707 492 L 707 494 L 708 494 L 708 497 L 709 497 L 709 499 L 710 499 L 710 502 L 711 502 L 711 504 L 712 504 L 712 507 L 713 507 L 713 510 L 714 510 L 714 512 L 715 512 L 715 515 L 716 515 L 716 517 L 717 517 L 717 520 L 718 520 L 718 522 L 719 522 L 719 525 L 720 525 L 720 527 L 721 527 L 721 530 L 722 530 L 722 532 L 723 532 L 723 535 L 724 535 L 724 538 L 725 538 L 725 540 L 726 540 L 726 543 L 727 543 L 727 545 L 728 545 L 728 547 L 714 547 L 714 546 L 713 546 L 713 543 L 712 543 L 712 541 L 711 541 L 711 538 L 710 538 L 710 536 L 709 536 L 709 533 L 708 533 L 708 530 L 707 530 L 707 528 L 706 528 L 706 525 L 705 525 L 705 523 L 704 523 L 704 520 L 703 520 L 703 518 L 702 518 L 702 515 L 701 515 L 701 513 L 700 513 L 700 512 L 657 512 L 657 513 L 656 513 L 656 516 L 655 516 L 655 518 L 654 518 L 654 521 L 653 521 L 653 524 L 652 524 L 652 526 L 651 526 L 651 529 L 650 529 L 650 531 L 649 531 L 649 534 L 648 534 L 648 536 L 647 536 L 647 539 L 646 539 L 646 542 L 645 542 L 645 544 L 644 544 L 644 547 Z M 696 500 L 696 498 L 695 498 L 695 496 L 694 496 L 694 493 L 693 493 L 693 490 L 692 490 L 692 488 L 691 488 L 691 485 L 690 485 L 690 482 L 689 482 L 689 480 L 688 480 L 688 477 L 687 477 L 687 474 L 686 474 L 686 472 L 685 472 L 685 469 L 684 469 L 684 466 L 683 466 L 683 463 L 682 463 L 682 461 L 681 461 L 681 457 L 680 457 L 680 454 L 679 454 L 679 453 L 678 453 L 678 457 L 677 457 L 677 460 L 676 460 L 676 463 L 675 463 L 675 466 L 674 466 L 674 469 L 673 469 L 673 472 L 672 472 L 672 474 L 671 474 L 671 477 L 670 477 L 670 479 L 669 479 L 669 482 L 668 482 L 668 485 L 667 485 L 667 487 L 666 487 L 666 490 L 665 490 L 665 493 L 664 493 L 664 495 L 663 495 L 663 498 L 662 498 L 662 500 Z" />
      <path class="landing-intro-logo__mask-trace" style="--draw-delay:4.3634s;--draw-duration:0.3183s" d="M 751 463 L 751 459 L 752 459 L 752 456 L 753 456 L 753 454 L 754 454 L 754 452 L 755 452 L 755 450 L 756 450 L 756 449 L 757 449 L 757 447 L 758 447 L 758 446 L 759 446 L 759 445 L 760 445 L 760 444 L 761 444 L 761 443 L 762 443 L 762 442 L 763 442 L 763 441 L 764 441 L 764 440 L 765 440 L 765 439 L 767 439 L 767 438 L 768 438 L 768 437 L 770 437 L 770 436 L 773 436 L 773 435 L 775 435 L 775 434 L 779 434 L 779 433 L 796 433 L 796 434 L 800 434 L 800 435 L 802 435 L 802 436 L 805 436 L 805 437 L 806 437 L 806 438 L 808 438 L 808 439 L 809 439 L 809 440 L 810 440 L 810 441 L 812 441 L 812 442 L 813 442 L 813 443 L 814 443 L 814 445 L 815 445 L 815 446 L 816 446 L 816 447 L 817 447 L 817 449 L 818 449 L 818 451 L 819 451 L 819 453 L 820 453 L 820 457 L 821 457 L 821 463 L 822 463 L 822 469 L 821 469 L 821 475 L 820 475 L 820 478 L 819 478 L 819 480 L 818 480 L 818 482 L 817 482 L 817 484 L 816 484 L 816 485 L 815 485 L 815 486 L 814 486 L 814 487 L 813 487 L 813 488 L 812 488 L 812 489 L 811 489 L 811 490 L 810 490 L 810 491 L 809 491 L 809 492 L 807 492 L 807 493 L 806 493 L 806 494 L 805 494 L 805 495 L 803 495 L 803 496 L 801 496 L 801 497 L 800 497 L 800 498 L 798 498 L 798 499 L 797 499 L 797 500 L 795 500 L 795 501 L 793 501 L 793 502 L 791 502 L 791 503 L 789 503 L 789 504 L 788 504 L 788 505 L 786 505 L 786 506 L 784 506 L 784 507 L 782 507 L 782 508 L 781 508 L 781 509 L 779 509 L 779 510 L 777 510 L 777 511 L 776 511 L 776 512 L 775 512 L 775 513 L 774 513 L 774 514 L 772 514 L 772 515 L 771 515 L 771 516 L 770 516 L 770 517 L 769 517 L 769 518 L 768 518 L 768 520 L 767 520 L 767 521 L 766 521 L 766 523 L 765 523 L 765 525 L 764 525 L 764 529 L 763 529 L 763 536 L 825 536 L 825 548 L 749 548 L 749 528 L 750 528 L 750 524 L 751 524 L 751 521 L 752 521 L 752 519 L 753 519 L 753 517 L 754 517 L 754 515 L 755 515 L 755 514 L 756 514 L 756 512 L 757 512 L 757 511 L 758 511 L 758 510 L 759 510 L 759 509 L 760 509 L 760 508 L 761 508 L 761 507 L 762 507 L 762 506 L 763 506 L 763 505 L 764 505 L 764 504 L 766 504 L 766 503 L 767 503 L 767 502 L 768 502 L 768 501 L 770 501 L 770 500 L 772 500 L 772 499 L 773 499 L 773 498 L 775 498 L 775 497 L 776 497 L 776 496 L 778 496 L 778 495 L 780 495 L 780 494 L 782 494 L 782 493 L 783 493 L 783 492 L 785 492 L 785 491 L 787 491 L 787 490 L 788 490 L 788 489 L 790 489 L 790 488 L 792 488 L 792 487 L 793 487 L 793 486 L 795 486 L 795 485 L 796 485 L 796 484 L 798 484 L 798 483 L 799 483 L 799 482 L 800 482 L 800 481 L 801 481 L 801 480 L 802 480 L 802 479 L 803 479 L 803 478 L 804 478 L 804 476 L 805 476 L 805 475 L 806 475 L 806 472 L 807 472 L 807 466 L 808 466 L 808 464 L 807 464 L 807 458 L 806 458 L 806 456 L 805 456 L 805 454 L 804 454 L 804 452 L 803 452 L 803 451 L 802 451 L 802 450 L 800 450 L 800 449 L 799 449 L 799 448 L 798 448 L 798 447 L 795 447 L 795 446 L 791 446 L 791 445 L 783 445 L 783 446 L 779 446 L 779 447 L 777 447 L 777 448 L 775 448 L 775 449 L 774 449 L 774 450 L 773 450 L 773 451 L 772 451 L 772 452 L 771 452 L 771 453 L 770 453 L 770 454 L 769 454 L 769 455 L 768 455 L 768 457 L 767 457 L 767 459 L 766 459 L 766 462 L 765 462 L 765 465 L 764 465 L 764 473 L 758 473 L 758 472 L 753 472 L 753 471 L 750 471 L 750 463 Z" />
      <path class="landing-intro-logo__mask-trace" style="--draw-delay:4.6817s;--draw-duration:0.3183s" d="M 882 501 L 882 502 L 881 502 L 881 503 L 879 503 L 879 504 L 877 504 L 877 505 L 875 505 L 875 506 L 873 506 L 873 507 L 872 507 L 872 508 L 870 508 L 870 509 L 868 509 L 868 510 L 867 510 L 867 511 L 866 511 L 866 512 L 864 512 L 864 513 L 863 513 L 863 514 L 862 514 L 862 515 L 861 515 L 861 516 L 860 516 L 860 517 L 859 517 L 859 518 L 858 518 L 858 519 L 857 519 L 857 520 L 856 520 L 856 522 L 855 522 L 855 524 L 854 524 L 854 527 L 853 527 L 853 531 L 852 531 L 852 536 L 914 536 L 914 548 L 838 548 L 838 532 L 839 532 L 839 526 L 840 526 L 840 523 L 841 523 L 841 520 L 842 520 L 842 518 L 843 518 L 843 516 L 844 516 L 844 515 L 845 515 L 845 513 L 846 513 L 846 512 L 847 512 L 847 511 L 848 511 L 848 510 L 849 510 L 849 509 L 850 509 L 850 507 L 852 507 L 852 506 L 853 506 L 853 505 L 854 505 L 854 504 L 855 504 L 855 503 L 856 503 L 856 502 L 858 502 L 858 501 L 859 501 L 859 500 L 861 500 L 861 499 L 863 499 L 863 498 L 864 498 L 864 497 L 866 497 L 866 496 L 868 496 L 868 495 L 869 495 L 869 494 L 871 494 L 871 493 L 873 493 L 873 492 L 874 492 L 874 491 L 876 491 L 876 490 L 878 490 L 878 489 L 880 489 L 880 488 L 881 488 L 881 487 L 883 487 L 883 486 L 884 486 L 884 485 L 886 485 L 886 484 L 887 484 L 887 483 L 888 483 L 888 482 L 889 482 L 889 481 L 891 481 L 891 479 L 892 479 L 892 478 L 893 478 L 893 477 L 894 477 L 894 475 L 895 475 L 895 473 L 896 473 L 896 470 L 897 470 L 897 460 L 896 460 L 896 457 L 895 457 L 895 455 L 894 455 L 894 453 L 893 453 L 893 452 L 892 452 L 892 451 L 891 451 L 891 450 L 890 450 L 890 449 L 889 449 L 889 448 L 887 448 L 887 447 L 885 447 L 885 446 L 881 446 L 881 445 L 873 445 L 873 446 L 869 446 L 869 447 L 866 447 L 866 448 L 865 448 L 865 449 L 863 449 L 863 450 L 862 450 L 862 451 L 861 451 L 861 452 L 860 452 L 860 453 L 859 453 L 859 455 L 858 455 L 858 456 L 857 456 L 857 458 L 856 458 L 856 460 L 855 460 L 855 463 L 854 463 L 854 468 L 853 468 L 853 473 L 848 473 L 848 472 L 843 472 L 843 471 L 839 471 L 839 467 L 840 467 L 840 461 L 841 461 L 841 458 L 842 458 L 842 455 L 843 455 L 843 453 L 844 453 L 844 451 L 845 451 L 845 449 L 846 449 L 846 448 L 847 448 L 847 447 L 848 447 L 848 445 L 849 445 L 849 444 L 850 444 L 850 443 L 851 443 L 851 442 L 852 442 L 852 441 L 854 441 L 854 440 L 855 440 L 855 439 L 856 439 L 856 438 L 858 438 L 858 437 L 860 437 L 860 436 L 862 436 L 862 435 L 865 435 L 865 434 L 869 434 L 869 433 L 885 433 L 885 434 L 889 434 L 889 435 L 892 435 L 892 436 L 894 436 L 894 437 L 896 437 L 896 438 L 898 438 L 898 439 L 899 439 L 899 440 L 900 440 L 900 441 L 901 441 L 901 442 L 902 442 L 902 443 L 903 443 L 903 444 L 904 444 L 904 445 L 905 445 L 905 447 L 906 447 L 906 448 L 907 448 L 907 450 L 908 450 L 908 452 L 909 452 L 909 455 L 910 455 L 910 459 L 911 459 L 911 473 L 910 473 L 910 477 L 909 477 L 909 479 L 908 479 L 908 481 L 907 481 L 907 483 L 906 483 L 906 484 L 905 484 L 905 486 L 904 486 L 904 487 L 903 487 L 903 488 L 902 488 L 902 489 L 901 489 L 901 490 L 900 490 L 900 491 L 898 491 L 898 492 L 897 492 L 897 493 L 896 493 L 896 494 L 894 494 L 894 495 L 893 495 L 893 496 L 891 496 L 891 497 L 889 497 L 889 498 L 888 498 L 888 499 L 886 499 L 886 500 L 884 500 L 884 501 Z" />
    </mask>
  </defs>
  <image class="landing-intro-logo__image-reveal" href="/images/locanda22-original-cream.png" x="0" y="0" width="934" height="569" preserveAspectRatio="xMidYMid meet" mask="url(#landing-intro-logo-mask)" />
  <image class="landing-intro-logo__image" href="/images/locanda22-original-cream.png" x="0" y="0" width="934" height="569" preserveAspectRatio="xMidYMid meet" />
</svg>
